<?xml version="1.0" standalone="no"?><!DOCTYPE svg PUBLIC "-//W3C//DTD SVG 1.1//EN" "http://www.w3.org/Graphics/SVG/1.1/DTD/svg11.dtd"><svg t="1526886343606" class="icon" style="" viewBox="0 0 1024 1024" version="1.1" xmlns="http://www.w3.org/2000/svg" p-id="4109" xmlns:xlink="http://www.w3.org/1999/xlink" width="128" height="128"><defs><style type="text/css"></style></defs><path d="M394.783236 105.931034C280.082314 105.931034 187.552032 201.387926 187.552032 318.599874 187.552032 435.811822 280.082314 531.268732 394.783236 531.268732 509.484159 531.268732 602.014439 435.811822 602.014439 318.599874 602.014439 201.387926 509.484159 105.931034 394.783236 105.931034ZM394.783236 460.648042C319.585621 460.648042 258.172721 397.292721 258.172721 318.599874 258.172721 239.907046 319.585621 176.551724 394.783236 176.551724 469.98085 176.551724 531.39375 239.907046 531.39375 318.599874 531.39375 397.292721 469.98085 460.648042 394.783236 460.648042ZM0.101278 876.529505C-1.438149 897.015596 14.768493 914.485778 35.312349 914.485778L754.254124 914.485778C774.798703 914.485778 791.005599 897.014413 789.465056 876.527669 776.020697 697.739193 655.670194 557.389047 506.940889 557.389047L282.626382 557.389047C133.82161 557.389047 13.538423 697.713223 0.101278 876.529505ZM506.940889 628.009737C614.775001 628.009737 708.145092 736.895912 719.04319 881.823197L754.254124 843.865088 35.312349 843.865088 70.523419 881.821361C81.416207 736.864397 174.724337 628.009737 282.626382 628.009737L506.940889 628.009737ZM988.691659 265.347302C1008.193024 265.347302 1024.002004 249.53833 1024.002004 230.036957 1024.002004 210.535601 1008.193024 194.726612 988.691659 194.726612L730.81037 194.726612C711.309005 194.726612 695.500025 210.535601 695.500025 230.036957 695.500025 249.53833 711.309005 265.347302 730.81037 265.347302L988.691659 265.347302ZM988.691659 459.554198C1008.193024 459.554198 1024.002004 443.745227 1024.002004 424.243853 1024.002004 404.742497 1008.193024 388.933508 988.691659 388.933508L715.181201 388.933508C695.679836 388.933508 679.870856 404.742497 679.870856 424.243853 679.870856 443.745227 695.679836 459.554198 715.181201 459.554198L988.691659 459.554198ZM988.691659 653.761095C1008.193024 653.761095 1024.002004 637.952124 1024.002004 618.45075 1024.002004 598.949394 1008.193024 583.140405 988.691659 583.140405L777.697877 583.140405C758.196512 583.140405 742.387532 598.949394 742.387532 618.45075 742.387532 637.952124 758.196512 653.761095 777.697877 653.761095L988.691659 653.761095Z" p-id="4110"></path></svg>