<?xml version="1.0" standalone="no"?><!DOCTYPE svg PUBLIC "-//W3C//DTD SVG 1.1//EN" "http://www.w3.org/Graphics/SVG/1.1/DTD/svg11.dtd"><svg t="1532677817825" class="icon" style="" viewBox="0 0 1024 1024" version="1.1" xmlns="http://www.w3.org/2000/svg" p-id="2709" xmlns:xlink="http://www.w3.org/1999/xlink" width="200" height="200"><defs><style type="text/css"></style></defs><path d="M56.558 343.096h169.768c15.626 0 28.295-12.669 28.295-28.295 0-15.626-12.669-28.295-28.295-28.295H56.558c-15.626 0-28.295 12.669-28.295 28.295 0 15.626 12.669 28.295 28.295 28.295zM254.621 711.535c0-15.626-12.669-28.295-28.295-28.295H56.558c-15.626 0-28.295 12.669-28.295 28.295 0 15.626 12.669 28.295 28.295 28.295h169.768c15.626 0 28.295-12.669 28.295-28.295zM56.558 541.463h169.768c15.626 0 28.295-12.669 28.295-28.295 0-15.626-12.669-28.295-28.295-28.295H56.558c-15.626 0-28.295 12.669-28.295 28.295 0 15.626 12.669 28.295 28.295 28.295zM729.994 376.848c0-78.004-63.47-141.474-141.474-141.474s-141.474 63.47-141.474 141.474 63.47 141.474 141.474 141.474 141.474-63.47 141.474-141.474z m-226.358 0c0-46.808 38.076-84.884 84.884-84.884s84.884 38.076 84.884 84.884-38.076 84.884-84.884 84.884-84.884-38.076-84.884-84.884zM333.868 762.668c0 15.626 12.669 28.295 28.295 28.295 15.626 0 28.295-12.669 28.295-28.295 0-78.004 88.849-141.474 198.063-141.474s198.063 63.47 198.063 141.474c0 15.626 12.669 28.295 28.295 28.295 15.626 0 28.295-12.669 28.295-28.295 0-109.214-114.243-198.063-254.653-198.063s-254.653 88.849-254.653 198.063z" p-id="2710"></path><path d="M867.392 3.863H221.905c-48.272 0-87.537 38.076-87.537 84.884v84.884c0 15.626 12.669 28.295 28.295 28.295s28.295-12.669 28.295-28.295V88.748c0-15.598 13.885-28.295 30.947-28.295h645.487c17.063 0 30.934 12.697 30.934 28.295V937.59c0 15.598-13.871 28.295-30.934 28.295H221.905c-17.063 0-30.947-12.697-30.947-28.295v-84.884c0-15.626-12.669-28.295-28.295-28.295s-28.295 12.669-28.295 28.295v84.884c0 46.808 39.264 84.884 87.537 84.884h645.487c48.259 0 87.523-38.076 87.523-84.884V88.748c0-46.808-39.264-84.885-87.523-84.885z" p-id="2711"></path></svg>