<?xml version="1.0" standalone="no"?><!DOCTYPE svg PUBLIC "-//W3C//DTD SVG 1.1//EN" "http://www.w3.org/Graphics/SVG/1.1/DTD/svg11.dtd"><svg t="1533707576322" class="icon" style="" viewBox="0 0 1024 1024" version="1.1" xmlns="http://www.w3.org/2000/svg" p-id="4188" xmlns:xlink="http://www.w3.org/1999/xlink" width="200" height="200"><defs><style type="text/css"></style></defs><path d="M512.626775 6.411013C232.475214 6.411013 5.367753 233.518474 5.367753 513.669012c0 280.152585 227.108484 507.261069 507.259022 507.261069 280.151561 0 507.259022-227.108484 507.259022-507.261069C1019.885797 233.518474 792.778336 6.411013 512.626775 6.411013zM512.626775 933.165202c-231.680617 0-419.495166-187.81455-419.495166-419.49619 0-231.679593 187.81455-419.494143 419.495166-419.494143 231.680617 0 419.495166 187.81455 419.495166 419.494143C932.121941 745.350652 744.307392 933.165202 512.626775 933.165202z" p-id="4189"></path><path d="M834.638723 316.304969l-5.76633-5.762237c-14.304797-14.305821-37.497009-14.305821-51.801806 0L443.765431 643.847887l-211.959459-211.957413c-14.304797-14.304797-37.498032-14.304797-51.80283 0l-5.763261 5.762237c-14.304797 14.305821-14.304797 37.499056 0 51.80283l235.772818 235.772818c0.635473 0.744967 1.294482 1.474584 1.997494 2.178619l5.763261 5.762237c14.304797 14.307867 37.497009 14.307867 51.80283 0l365.063463-365.061416C848.942497 353.803002 848.942497 330.61079 834.638723 316.304969z" p-id="4190"></path></svg>