<?xml version="1.0" standalone="no"?><!DOCTYPE svg PUBLIC "-//W3C//DTD SVG 1.1//EN" "http://www.w3.org/Graphics/SVG/1.1/DTD/svg11.dtd"><svg t="1532677928114" class="icon" style="" viewBox="0 0 1024 1024" version="1.1" xmlns="http://www.w3.org/2000/svg" p-id="3952" xmlns:xlink="http://www.w3.org/1999/xlink" width="200" height="200"><defs><style type="text/css"></style></defs><path d="M934.588109 342.504678 634.045125 643.038452l-219.410152 81.697697 82.543971-218.555691L797.701462 205.64259c30.246885-30.231535 79.277578-30.231535 109.519346 0l27.366278 27.372418C964.814528 263.246543 964.814528 312.268026 934.588109 342.504678L934.588109 342.504678zM481.091548 658.208966l131.709741-49.04195 7.373944-7.372921-82.112136-82.122369-7.446599 7.446599L481.091548 658.208966 481.091548 658.208966zM565.430398 492.304426l82.112136 82.115206 204.727755-204.731848-82.127486-82.112136L565.430398 492.304426 565.430398 492.304426zM907.371234 259.84712l-27.367301-27.373441c-15.083533-15.083533-39.661302-15.093766-54.740742 0l-27.732621 27.733645 82.113159 82.107019 27.727505-27.717272C922.454768 299.502281 922.454768 274.940886 907.371234 259.84712L907.371234 259.84712zM202.229352 744.272088l0-38.715767 190.307324 0-14.611789 38.715767L202.229352 744.272088 202.229352 744.272088zM421.778674 628.132974 202.229352 628.132974l0-38.71065 234.17953 0L421.778674 628.132974 421.778674 628.132974zM202.229352 357.154329l193.559391 0 0 38.711673L202.229352 395.866003 202.229352 357.154329 202.229352 357.154329zM395.788743 512 202.229352 512l0-38.71065 193.559391 0L395.788743 512 395.788743 512zM628.055714 705.556321l0 38.715767L439.888124 744.272088l103.999632-38.715767L628.055714 705.556321 628.055714 705.556321zM531.277554 137.679709l0 142.05332c0 21.376866 17.334807 38.711673 38.711673 38.711673l60.013839 0-38.71065 38.709627-21.303188 0c-42.75885 0-77.420277-34.667567-77.420277-77.4213L492.56895 105.528452 144.162866 105.528452c-21.37789 0-38.711673 17.333784-38.711673 38.711673l0 735.520773c0 21.376866 17.333784 38.71065 38.711673 38.71065l541.964452 0c21.376866 0 38.71065-17.333784 38.71065-38.71065L724.837968 606.858438l38.71065-38.720883 0 311.62232c0 42.75271-34.668591 77.4213-77.4213 77.4213L144.162866 957.181175c-42.75271 0-77.422324-34.668591-77.422324-77.4213L66.740542 144.240125c0-42.753733 34.669614-77.422324 77.422324-77.422324l290.337551 0 10.340509 0 19.998473 0 54.134945 0 174.614923 188.05605-27.066449 27.071565L531.277554 137.679709 531.277554 137.679709zM531.277554 137.679709" p-id="3953"></path></svg>