<?xml version="1.0" standalone="no"?><!DOCTYPE svg PUBLIC "-//W3C//DTD SVG 1.1//EN" "http://www.w3.org/Graphics/SVG/1.1/DTD/svg11.dtd"><svg t="1526026584062" class="icon" style="" viewBox="0 0 1024 1024" version="1.1" xmlns="http://www.w3.org/2000/svg" p-id="7137" xmlns:xlink="http://www.w3.org/1999/xlink" width="128" height="128"><defs><style type="text/css"></style></defs><path d="M505.022687 312.319083c-114.834045 0-208.251706 93.272478-208.251706 207.960333 0 114.639461 93.417661 207.960333 208.251706 207.960333s208.251706-93.320872 208.251706-207.960333C713.274392 405.591561 619.856732 312.319083 505.022687 312.319083L505.022687 312.319083 505.022687 312.319083zM505.022687 659.679492c-76.991913 0-139.593652-62.553346-139.593652-139.400076 0-76.895125 62.600731-139.399068 139.593652-139.399068 76.990904 0 139.592644 62.503943 139.592644 139.399068C644.615331 597.127155 582.014599 659.679492 505.022687 659.679492L505.022687 659.679492 505.022687 659.679492zM936.593788 373.17662l-41.524113 0c-5.764941 0-10.998557-3.440011-13.178305-8.818808-2.229151-5.282009-1.018292-11.436119 3.100244-15.505253l29.362083-29.313689c26.698394-26.698394 26.698394-70.305468 0-96.955467L803.154246 111.531151c-13.37289-13.326512-30.961103-20.011949-48.549317-20.011949-17.588213 0-35.177435 6.685437-48.549317 20.011949l-29.411485 29.313689c-2.715108 2.7141-6.348695 4.167938-10.030676 4.167938-1.889384 0-3.731383-0.339767-5.474577-1.066686-5.330403-2.179749-8.818808-7.413364-8.818808-13.178305L652.320067 89.290051c0-37.695942-30.912709-72.824983-68.658054-72.824983L426.38336 16.465068c-37.793738 0-68.658054 35.128033-68.658054 72.824983l0 41.476727c0 5.764941-3.439002 10.998557-8.8178 13.178305-1.744202 0.726919-3.585193 1.066686-5.426183 1.066686-3.731383 0-7.36497-1.453838-10.127464-4.167938L303.990769 111.531151c-13.37289-13.326512-30.961103-20.011949-48.549317-20.011949s-35.176427 6.685437-48.550325 20.011949L95.690669 222.584411c-26.74578 26.648991-26.74578 70.257074 0 96.955467l29.363091 29.313689c4.117527 4.070141 5.328387 10.223244 3.100244 15.505253-2.179749 5.378797-7.413364 8.818808-13.179314 8.818808L73.451585 373.177628c-37.793738 0-71.516327 30.865323-71.516327 68.561265l0 157.035675c0 37.745344 33.723597 68.60966 71.516327 68.60966l41.524113 0c5.76595 0 10.998557 3.440011 13.179314 8.770414 2.228143 5.328387 1.017283 11.435111-3.100244 15.504245l-29.363091 29.362083c-26.697386 26.648991-26.697386 70.305468 0 96.955467l111.19945 111.054268c13.373898 13.324496 30.962111 20.011949 48.550325 20.011949s35.176427-6.687453 48.549317-20.011949l29.362083-29.363091c2.762494-2.7141 6.397089-4.16693 10.080078-4.16693 1.889384 0 3.730375 0.388161 5.474577 1.114071 5.378797 2.179749 8.8178 7.36497 8.8178 13.13092l0 41.475719c0 37.745344 30.865323 71.419539 68.658054 71.419539l157.278654 0c37.745344 0 68.658054-33.674195 68.658054-71.419539l0-41.475719c0-5.76595 3.488405-10.951171 8.818808-13.13092 1.743194-0.726919 3.585193-1.114071 5.426183-1.114071 3.730375 0 7.363962 1.45283 10.07907 4.16693l29.411485 29.363091c13.324496 13.324496 30.961103 20.011949 48.549317 20.011949 17.588213 0 35.176427-6.687453 48.549317-20.011949l111.19945-111.054268c26.698394-26.648991 26.698394-70.305468 0-96.955467L884.991613 691.658887c-4.118535-4.070141-5.329395-10.175858-3.100244-15.504245 2.179749-5.330403 7.413364-8.770414 13.178305-8.770414l41.524113 0c37.793738 0 71.517335-30.865323 71.517335-68.60966L1008.111124 441.737885C1008.111124 404.041943 974.387527 373.17662 936.593788 373.17662L936.593788 373.17662 936.593788 373.17662zM939.501464 598.77356l-44.431789 0c-33.673187 0-63.714803 20.108737-76.603752 51.119242-12.888949 31.057891-5.862738 66.477297 17.975366 90.268014l29.363091 29.313689-111.19945 111.054268-29.411485-29.363091c-15.650435-15.601033-36.485083-24.226264-58.628386-24.226264-10.950163 0-21.608953 2.132363-31.737424 6.299292-31.106285 12.888949-51.166628 42.881163-51.166628 76.507972l0 44.335001L426.38336 954.081685l0-44.335001c0-33.626809-20.107729-63.619023-51.16562-76.507972-10.127464-4.16693-20.787262-6.299292-31.78481-6.299292-22.144312 0-42.929557 8.625232-58.579992 24.226264l-29.411485 29.363091-111.19945-111.054268 29.362083-29.313689c23.790718-23.790718 30.865323-59.210123 17.976374-90.268014-12.888949-31.010505-42.929557-51.119242-76.60476-51.119242L70.592303 598.77356 70.592303 441.737885l44.382387 0c33.674195 0 63.715811-20.059335 76.60476-51.118234s5.814344-66.478305-17.976374-90.21962l-29.362083-29.362083 111.19945-111.054268 29.411485 29.362083c15.650435 15.650435 36.436689 24.226264 58.579992 24.226264 10.949154 0 21.657347-2.082961 31.78481-6.298284 31.057891-12.840555 51.16562-42.882171 51.16562-76.507972L426.382352 85.026334l157.278654 0 0 45.739437c0 33.625801 20.059335 63.667417 51.166628 76.507972 10.127464 4.214315 20.787262 6.298284 31.737424 6.298284 22.143304 0 42.977951-8.575829 58.628386-24.226264l29.411485-29.362083 111.19945 111.054268-29.363091 29.362083c-23.839112 23.741316-30.864315 59.160721-17.975366 90.21962s42.930565 51.118234 76.603752 51.118234l44.431789 0L939.501464 598.77356 939.501464 598.77356 939.501464 598.77356z" p-id="7138" fill=""></path></svg>
