<?xml version="1.0" standalone="no"?><!DOCTYPE svg PUBLIC "-//W3C//DTD SVG 1.1//EN" "http://www.w3.org/Graphics/SVG/1.1/DTD/svg11.dtd"><svg t="1528445182000" class="icon" style="" viewBox="0 0 1024 1024" version="1.1" xmlns="http://www.w3.org/2000/svg" p-id="1999" xmlns:xlink="http://www.w3.org/1999/xlink" width="128" height="128"><defs><style type="text/css"></style></defs><path d="M512 1002.02569917c-273.5620257 0-495.3590325-221.7970068-495.3590325-495.3590325s221.7970068-495.3590325 495.3590325-495.3590325 495.3590325 221.7970068 495.3590325 495.3590325S785.5620257 1002.02569917 512 1002.02569917zM512 135.1473923C306.85944066 135.1473923 140.48072563 301.52610733 140.48072563 506.66666667s166.37871504 371.51927437 371.51927437 371.51927437 371.51927437-166.37871504 371.51927437-371.51927437S717.14055934 135.1473923 512 135.1473923zM697.75963719 568.58654573L573.91987906 568.58654573l0 123.83975813c0 34.24169313-27.67818595 61.91987906-61.91987906 61.91987906-34.17977325 0-61.91987906-27.67818595-61.91987906-61.91987906L450.08012094 568.58654573 326.24036281 568.58654573C292.06058957 568.58654573 264.32048375 540.9083598 264.32048375 506.66666667c0-34.17977325 27.74010582-61.91987906 61.91987906-61.91987906l123.83975813 0L450.08012094 320.90702948c0-34.17977325 27.74010582-61.91987906 61.91987906-61.91987906 34.24169313 0 61.91987906 27.74010582 61.91987906 61.91987906l0 123.83975813 123.83975813 0c34.24169313 0 61.91987906 27.74010582 61.91987906 61.91987906C759.67951625 540.9083598 732.00133031 568.58654573 697.75963719 568.58654573z" fill="" p-id="2000"></path></svg>
