<?xml version="1.0" standalone="no"?><!DOCTYPE svg PUBLIC "-//W3C//DTD SVG 1.1//EN" "http://www.w3.org/Graphics/SVG/1.1/DTD/svg11.dtd"><svg t="1532677768399" class="icon" style="" viewBox="0 0 1024 1024" version="1.1" xmlns="http://www.w3.org/2000/svg" p-id="1956" xmlns:xlink="http://www.w3.org/1999/xlink" width="200" height="200"><defs><style type="text/css"></style></defs><path d="M581.161 945.731c-49.085 7.615-102.115 12.15-153.623 12.15-170.896 0-360.727-17.481-360.727-99 0 0 0-52.65 0-58.189 0-75.115 114.957-144.554 240.023-168.611 0 0 37.765-20.077 28.627-58.119-39.704-47.977-48.081-98.827-48.081-98.827-6.819-2.977-16.581-8.827-22.639-16.823-14.019-19.004-26.861-59.919-24.057-88.477 2.907-29.631 10.869-20.181 11.769-24.957-25.131-64.107-13.154-142.615 19.039-200.146 64.523-115.373 202.985-81.415 225.104-38.111 132.507-24.646 126.693 181.8 108.727 236.804 0 0 12.046 2.354 9.381 52.789-2.457 50.573-45.277 84.254-45.277 84.254-1.35 13.846-18.243 56.181-46.039 93.496-5.261 11.077-6.473 20.007-5.539 27.415-24.957 39.946-39.635 86.954-39.635 137.423 0 84.393 40.5 159.3 102.946 206.931zM957.223 738.8c0 120.669-97.823 218.527-218.527 218.527s-218.527-97.823-218.527-218.527 97.823-218.527 218.527-218.527 218.527 97.823 218.527 218.527zM859.296 707.819l-90.346 0 0-89.723-60.854 0 0 89.723-90.311 0 0 62.065 90.311 0 0 89.757 60.854 0 0-89.757 90.346 0 0-62.065z" p-id="1957"></path></svg>