<?xml version="1.0" standalone="no"?><!DOCTYPE svg PUBLIC "-//W3C//DTD SVG 1.1//EN" "http://www.w3.org/Graphics/SVG/1.1/DTD/svg11.dtd"><svg t="1526026418764" class="icon" style="" viewBox="0 0 1024 1024" version="1.1" xmlns="http://www.w3.org/2000/svg" p-id="5034" xmlns:xlink="http://www.w3.org/1999/xlink" width="128" height="128"><defs><style type="text/css"></style></defs><path d="M832 640H448V192h320V128H384v128H128L0 448v256h147.2c-12.8 19.2-19.2 38.4-19.2 64 0 70.4 57.6 128 128 128s128-57.6 128-128c0-25.6-6.4-44.8-19.2-64H595.2c-12.8 19.2-19.2 38.4-19.2 64 0 70.4 57.6 128 128 128s128-57.6 128-128c0-25.6-6.4-44.8-19.2-64H960v-64h-128z m-576 192c-38.4 0-64-25.6-64-64s25.6-64 64-64 64 25.6 64 64-25.6 64-64 64z m128-192H64V467.2L160 320H384v320z m320 192c-38.4 0-64-25.6-64-64s25.6-64 64-64 64 25.6 64 64-25.6 64-64 64z" p-id="5035" fill=""></path><path d="M576 320h256v64H576zM704 448h256v64h-256zM128 448v128h192V512H192V448z" p-id="5036" fill=""></path></svg>
