<?xml version="1.0" standalone="no"?><!DOCTYPE svg PUBLIC "-//W3C//DTD SVG 1.1//EN" "http://www.w3.org/Graphics/SVG/1.1/DTD/svg11.dtd"><svg t="1526449691253" class="icon" style="" viewBox="0 0 1024 1024" version="1.1" xmlns="http://www.w3.org/2000/svg" p-id="1682" xmlns:xlink="http://www.w3.org/1999/xlink" width="128" height="128"><defs><style type="text/css"></style></defs><path d="M577.668117 627.538433l0 47.717791 69.211315-66.967204-49.715285 0C586.393849 608.28902 577.668117 616.899118 577.668117 627.538433zM606.912162 338.697979 411.99382 338.697979c-26.923186 0-48.726771 21.551852-48.726771 48.14451l0 250.328325c0 26.580379 21.803585 48.131207 48.726771 48.131207L538.682197 685.302021l0-77.013001c0-21.279652 17.454534-38.525432 38.98592-38.525432l77.968769 0L655.636886 386.841465C655.636886 360.248807 633.822045 338.697979 606.912162 338.697979zM480.208435 608.275717l-58.474786 0c-10.763135 0-19.495006-8.623401-19.495006-19.250436 0-10.639315 8.732895-19.262716 19.495006-19.262716l58.474786 0c10.769274 0 19.50217 8.623401 19.50217 19.262716C499.710604 599.652316 490.977709 608.275717 480.208435 608.275717zM597.163123 531.262716 421.734672 531.262716c-10.763135 0-19.495006-8.623401-19.495006-19.262716 0-10.627035 8.732895-19.262716 19.495006-19.262716l175.429475 0c10.769274 0 19.482727 8.635681 19.482727 19.262716C616.646873 522.640338 607.933421 531.262716 597.163123 531.262716zM597.163123 454.236412 421.734672 454.236412c-10.763135 0-19.495006-8.622378-19.495006-19.262716 0-10.627035 8.732895-19.250436 19.495006-19.250436l175.429475 0c10.769274 0 19.482727 8.623401 19.482727 19.250436C616.646873 445.614034 607.933421 454.236412 597.163123 454.236412zM511.999488 128.08519c-212.041324 0-383.91481 171.879626-383.91481 383.91481 0 212.034161 171.873486 383.91481 383.91481 383.91481 212.035184 0 383.91481-171.880649 383.91481-383.91481C895.914298 299.964816 724.034672 128.08519 511.999488 128.08519zM694.622806 608.28902l-0.038886 0c-0.091074 4.783956-1.964748 9.56689-5.669116 13.225209l-99.889011 96.664573c-3.199878 3.14155-7.214309 4.886287-11.357675 5.403057l0 0.233314L402.239666 723.815173c-43.057655 0-77.969792-34.478256-77.969792-77.025281L324.269873 377.210108c0-42.532699 34.913161-77.025281 77.969792-77.025281l214.407208 0c43.069935 0 77.975932 34.492582 77.975932 77.025281L694.622806 608.28902z" p-id="1683"></path></svg>