<?xml version="1.0" standalone="no"?><!DOCTYPE svg PUBLIC "-//W3C//DTD SVG 1.1//EN" "http://www.w3.org/Graphics/SVG/1.1/DTD/svg11.dtd"><svg t="1526026508387" class="icon" style="" viewBox="0 0 1024 1024" version="1.1" xmlns="http://www.w3.org/2000/svg" p-id="5830" xmlns:xlink="http://www.w3.org/1999/xlink" width="128" height="128"><defs><style type="text/css"></style></defs><path d="M959.116759 639.364783 959.116759 511.453554 831.208601 511.453554 831.208601 639.364783 702.300672 639.364783 702.300672 511.453554 574.392514 511.453554 574.392514 639.364783 638.469901 639.364783 638.469901 702.82 574.515311 702.82 574.515311 766.774591 701.424722 766.774591 701.424722 831.227532 574.515311 831.227532 574.515311 895.181099 701.424722 895.181099 701.424722 959.13262 831.330374 959.13262 831.330374 895.181099 959.116759 895.181099 959.116759 831.227532 831.330374 831.227532 831.330374 766.774591 959.116759 766.774591 959.116759 702.82 894.286218 702.82 894.286218 639.364783Z" p-id="5831" fill=""></path><path d="M127.711172 127.72908l639.542838 0 0 319.770907 63.954591 0L831.208601 127.72908c0-35.163871-28.79379-63.954591-63.954591-63.954591L127.711172 63.774489c-35.166941 0-63.954591 28.79072-63.954591 63.954591l0 639.543861c0 35.160801 28.78765 63.954591 63.954591 63.954591l383.727545 0 0-63.954591L127.711172 767.272941 127.711172 127.72908z" p-id="5832" fill=""></path><path d="M255.61933 255.637238l383.726521 0 0 63.954591-383.726521 0 0-63.954591Z" p-id="5833" fill=""></path><path d="M255.61933 383.545396l383.726521 0 0 63.954591-383.726521 0 0-63.954591Z" p-id="5834" fill=""></path><path d="M255.61933 511.453554l255.819386 0 0 63.956637-255.819386 0 0-63.956637Z" p-id="5835" fill=""></path></svg>
