<?xml version="1.0" standalone="no"?><!DOCTYPE svg PUBLIC "-//W3C//DTD SVG 1.1//EN" "http://www.w3.org/Graphics/SVG/1.1/DTD/svg11.dtd"><svg t="1533707461823" class="icon" style="" viewBox="0 0 1024 1024" version="1.1" xmlns="http://www.w3.org/2000/svg" p-id="3530" xmlns:xlink="http://www.w3.org/1999/xlink" width="200" height="200"><defs><style type="text/css"></style></defs><path d="M877.568 36.096H811.52c-18.176 0-39.424 10.752-39.424 28.16s20.992 34.816 39.424 34.816h66.048c39.424 0 66.048 25.6 66.048 62.976v725.76c0 37.632-26.624 62.976-66.048 62.976H166.4c-39.424 0-82.944-25.6-82.944-62.976V162.048c0-37.632 26.624-62.976 66.048-62.976h82.944c18.176 0 25.344-17.408 25.344-34.816s-6.912-28.16-25.344-28.16H149.504c-92.672 0-132.096 55.04-132.096 127.488v717.568c0 77.824 49.152 132.864 139.264 132.864h713.984c89.856 0 139.264-45.568 139.264-132.864V163.328c-0.256-72.448-46.592-127.232-132.352-127.232z m-645.12 284.16c0 17.408 15.36 32.256 33.792 32.256h496.128c18.176 0 33.792-14.848 33.792-32.256s-15.36-32.256-33.792-32.256H266.24c-18.176 0.256-33.792 14.848-33.792 32.256z m528.64 142.336H266.24c-18.176 0-33.792 14.848-33.792 32.256s15.36 32.256 33.792 32.256h496.128c18.176 0 33.792-14.848 33.792-32.256-1.536-18.944-16.896-32.256-35.072-32.256z m0 189.184H266.24c-18.176 0-33.792 14.848-33.792 32.256s15.36 32.256 33.792 32.256h496.128c18.176 0 33.792-14.848 33.792-32.256-1.536-18.944-16.896-32.256-35.072-32.256zM399.872 115.2h230.4c26.624 0 49.152-25.6 49.152-55.04S656.896 5.12 628.992 5.12h-229.12c-28.16 0-50.688 25.6-50.688 55.04S371.712 115.2 399.872 115.2z m0 0" p-id="3531"></path></svg>