<?xml version="1.0" standalone="no"?><!DOCTYPE svg PUBLIC "-//W3C//DTD SVG 1.1//EN" "http://www.w3.org/Graphics/SVG/1.1/DTD/svg11.dtd"><svg t="1528706427643" class="icon" style="" viewBox="0 0 1024 1024" version="1.1" xmlns="http://www.w3.org/2000/svg" p-id="2142" xmlns:xlink="http://www.w3.org/1999/xlink" width="128" height="128"><defs><style type="text/css"></style></defs><path d="M513.4 960.7c-134.6 0-385-200.6-385-390.3v-362c0-8.8 7.4-15.9 16.5-16.1l21.8-0.4c0.8 0 86.3-1.7 174.5-36.6 90.4-35.7 148.7-76.9 149.3-77.3l12.9-9.1c2.9-2.1 6.4-3.2 10-3.2 3.5 0 7 1 9.9 3.1l13.1 9.2c0.6 0.4 58.9 41.5 149.3 77.3 88.2 34.9 173.7 36.6 174.6 36.6l21.6 0.4c9.1 0.2 16.5 7.3 16.5 16.1l0.2 362.1c-0.1 189.6-250.5 390.2-385.2 390.2zM839 250.5c-33.1-2.5-102.7-11-175-39.7-73.9-29.2-128.2-62-150.6-76.6-22.3 14.4-76.7 47.3-150.6 76.6-72.2 28.6-141.6 37.1-175.2 39.7v319.9c0 148.8 218.1 330.6 325.8 330.6 41.7 0 123-33.8 202.9-108.2 77-71.6 123-154.8 123-222.4l-0.3-319.9zM482.5 631.2" fill="" p-id="2143"></path><path d="M455.7 748.5c-6.5 0-13.1-2.2-18.5-6.7-12.3-10.2-13.9-28.5-3.7-40.6l117.2-140.6-133.1-44.3c-9.1-3.1-16-10.3-18.6-19.5-2.7-9.2-0.5-19.1 5.6-26.4L549 297.2c10.2-12.2 28.5-13.8 40.6-3.7 12.3 10.2 13.9 28.5 3.7 40.6L476.1 474.7 609.2 519c9.1 3.1 16 10.3 18.6 19.5 2.7 9.2 0.5 19.1-5.6 26.4L477.9 738.1c-5.7 6.9-13.9 10.4-22.2 10.4z m0 0" fill="" p-id="2144"></path></svg>